<svg width="20" height="20" viewBox="0 0 20 20" fill="none" xmlns="http://www.w3.org/2000/svg">
<path fill-rule="evenodd" clip-rule="evenodd" d="M17.5 9.92355V16.6667H2.5V9.19252C2.5 5.03585 5.85833 1.66669 10 1.66669C10.0873 1.66669 10.1742 1.66818 10.2608 1.67115C10.106 2.20037 10.0166 2.75756 10.0021 3.33336C10.0014 3.33336 10.0007 3.33335 10 3.33335C6.77833 3.33335 4.16667 5.95669 4.16667 9.19252V15H15.8333V9.96623C16.0525 9.98856 16.2749 10 16.5 10C16.8401 10 17.174 9.97388 17.5 9.92355ZM11.4731 18.9732C11.8638 18.5825 12.0833 18.0526 12.0833 17.5H7.91667C7.91667 18.0526 8.13616 18.5825 8.52686 18.9732C8.91756 19.3639 9.44747 19.5834 10 19.5834C10.5525 19.5834 11.0824 19.3639 11.4731 18.9732Z" fill="#99A7B5"/>
<ellipse cx="16.6665" cy="3.33331" rx="2.5" ry="2.5" fill="#F84AB3"/>
</svg>
