<svg width="20" height="20" viewBox="0 0 20 20" fill="none" xmlns="http://www.w3.org/2000/svg">
<path d="M1.66675 7.49501C1.66631 6.83851 1.79538 6.18837 2.04655 5.58183C2.29773 4.97528 2.66609 4.42424 3.13054 3.96026C3.59499 3.49628 4.14639 3.12847 4.75319 2.8779C5.35999 2.62733 6.01025 2.49891 6.66675 2.50001H13.3334C16.0942 2.50001 18.3334 4.74584 18.3334 7.49501V17.5H6.66675C3.90592 17.5 1.66675 15.2542 1.66675 12.505V7.49501ZM16.6667 15.8333V7.49501C16.6645 6.61209 16.3125 5.76604 15.6877 5.14219C15.0629 4.51834 14.2163 4.16755 13.3334 4.16667H6.66675C6.22912 4.16558 5.79558 4.25088 5.391 4.4177C4.98641 4.58451 4.61873 4.82955 4.30905 5.13877C3.99937 5.44799 3.75377 5.8153 3.58635 6.21963C3.41893 6.62397 3.33298 7.05738 3.33342 7.49501V12.505C3.33562 13.3879 3.68768 14.234 4.31246 14.8578C4.93725 15.4817 5.78383 15.8325 6.66675 15.8333H16.6667ZM11.6667 9.16667H13.3334V10.8333H11.6667V9.16667ZM6.66675 9.16667H8.33342V10.8333H6.66675V9.16667Z" fill="#99A7B5"/>
</svg>
