<svg width="20" height="20" viewBox="0 0 20 20" fill="none" xmlns="http://www.w3.org/2000/svg">
<path d="M8.33342 5.83335C8.33325 6.99222 8.67825 8.12488 9.32444 9.08686C9.97062 10.0489 10.8887 10.7966 11.9616 11.2347C13.0344 11.6727 14.2135 11.7814 15.3483 11.5466C16.4832 11.3119 17.5224 10.7444 18.3334 9.91669V10C18.3334 14.6025 14.6026 18.3334 10.0001 18.3334C5.39758 18.3334 1.66675 14.6025 1.66675 10C1.66675 5.39752 5.39758 1.66669 10.0001 1.66669H10.0834C9.52845 2.20929 9.0877 2.85749 8.78715 3.57309C8.4866 4.28869 8.33232 5.0572 8.33342 5.83335ZM3.33341 10C3.33281 11.4875 3.82969 12.9325 4.74499 14.105C5.6603 15.2775 6.94144 16.1103 8.38459 16.4707C9.82774 16.8312 11.35 16.6986 12.7091 16.0942C14.0683 15.4897 15.1862 14.4481 15.8851 13.135C14.6413 13.4281 13.3432 13.3984 12.1141 13.049C10.885 12.6995 9.7655 12.0418 8.86192 11.1382C7.95835 10.2346 7.30062 9.11514 6.95115 7.886C6.60168 6.65687 6.57205 5.35882 6.86508 4.11502C5.79806 4.68347 4.90574 5.53141 4.28363 6.56806C3.66152 7.60471 3.33306 8.79103 3.33341 10Z" fill="#99A7B5"/>
</svg>
