<svg width="71" height="14" viewBox="0 0 71 14" fill="none" xmlns="http://www.w3.org/2000/svg">
<path d="M5.40881 0.382812C6.11715 0.382812 6.74996 0.536458 7.30725 0.84375C7.86975 1.15104 8.30725 1.57812 8.61975 2.125C8.93746 2.66667 9.09631 3.27865 9.09631 3.96094C9.09631 4.67969 8.94006 5.31771 8.62756 5.875C8.31506 6.42708 7.88017 6.85677 7.32288 7.16406C6.77079 7.46615 6.14319 7.61719 5.44006 7.61719H2.87756V11.0078H0.932251V0.382812H5.40881ZM5.34631 5.88281C5.67965 5.88281 5.98433 5.79948 6.26038 5.63281C6.53642 5.46094 6.75256 5.22917 6.90881 4.9375C7.07027 4.64583 7.151 4.32031 7.151 3.96094C7.151 3.63802 7.07027 3.33594 6.90881 3.05469C6.74736 2.77344 6.526 2.54688 6.24475 2.375C5.96871 2.20312 5.66402 2.11719 5.33069 2.11719H2.87756V5.88281H5.34631Z" fill="#012345"/>
<path d="M17.7448 6.85156C17.7448 7.02865 17.7317 7.24219 17.7057 7.49219H11.4323C11.4948 7.91927 11.6302 8.28906 11.8385 8.60156C12.052 8.91406 12.3151 9.15365 12.6276 9.32031C12.9453 9.48177 13.289 9.5625 13.6588 9.5625C14.1276 9.5625 14.5104 9.47135 14.8073 9.28906C15.1093 9.10156 15.3307 8.83333 15.4713 8.48438H17.5338C17.3932 8.97917 17.1458 9.4375 16.7916 9.85938C16.4375 10.2812 15.9921 10.6198 15.4557 10.875C14.9244 11.125 14.3385 11.25 13.6979 11.25C12.9114 11.25 12.2005 11.0599 11.5651 10.6797C10.9296 10.2995 10.4323 9.78385 10.0729 9.13281C9.7135 8.48177 9.53381 7.76823 9.53381 6.99219C9.53381 6.21615 9.7135 5.5026 10.0729 4.85156C10.4323 4.20052 10.9296 3.6849 11.5651 3.30469C12.2005 2.92448 12.9114 2.73438 13.6979 2.73438C14.4843 2.73438 15.1849 2.92188 15.7994 3.29688C16.414 3.67188 16.8906 4.17448 17.2291 4.80469C17.5729 5.42969 17.7448 6.11198 17.7448 6.85156ZM15.8151 6.03125C15.789 5.73438 15.677 5.46094 15.4791 5.21094C15.2812 4.95573 15.0234 4.75521 14.7057 4.60938C14.3932 4.45833 14.0546 4.38281 13.6901 4.38281C13.1849 4.38281 12.7317 4.52344 12.3307 4.80469C11.9349 5.08073 11.6614 5.48958 11.5104 6.03125H15.8151Z" fill="#012345"/>
<path d="M21.0885 2.97656V4.32812C21.3802 3.83854 21.7682 3.45312 22.2526 3.17188C22.7421 2.88542 23.2734 2.74219 23.8463 2.74219C24.5911 2.74219 25.2604 2.93229 25.8541 3.3125C26.4531 3.69271 26.9192 4.20833 27.2526 4.85938C27.5911 5.50521 27.7604 6.21615 27.7604 6.99219C27.7604 7.77344 27.5911 8.48958 27.2526 9.14062C26.914 9.78646 26.4479 10.2995 25.8541 10.6797C25.2656 11.0599 24.6041 11.25 23.8698 11.25C23.2916 11.25 22.7604 11.112 22.276 10.8359C21.7916 10.5547 21.414 10.1797 21.1432 9.71094L21.1823 10.6406V13.75H19.2916V2.97656H21.0885ZM23.526 9.50781C23.9531 9.50781 24.3463 9.40625 24.7057 9.20312C25.0651 8.99479 25.3515 8.70052 25.5651 8.32031C25.7786 7.9401 25.8854 7.4974 25.8854 6.99219C25.8854 6.5026 25.7786 6.06771 25.5651 5.6875C25.3567 5.30729 25.0703 5.01302 24.7057 4.80469C24.3463 4.59115 23.9505 4.48438 23.5182 4.48438C23.0911 4.48438 22.6953 4.59635 22.3307 4.82031C21.9713 5.03906 21.6849 5.34115 21.4713 5.72656C21.263 6.11198 21.1588 6.53385 21.1588 6.99219C21.1588 7.47135 21.2656 7.90365 21.4791 8.28906C21.6927 8.66927 21.9791 8.96875 22.3385 9.1875C22.7031 9.40104 23.0989 9.50781 23.526 9.50781Z" fill="#012345"/>
<path d="M37.0573 6.85156C37.0573 7.02865 37.0442 7.24219 37.0182 7.49219H30.7448C30.8073 7.91927 30.9427 8.28906 31.151 8.60156C31.3645 8.91406 31.6276 9.15365 31.9401 9.32031C32.2578 9.48177 32.6015 9.5625 32.9713 9.5625C33.4401 9.5625 33.8229 9.47135 34.1198 9.28906C34.4218 9.10156 34.6432 8.83333 34.7838 8.48438H36.8463C36.7057 8.97917 36.4583 9.4375 36.1041 9.85938C35.75 10.2812 35.3046 10.6198 34.7682 10.875C34.2369 11.125 33.651 11.25 33.0104 11.25C32.2239 11.25 31.513 11.0599 30.8776 10.6797C30.2421 10.2995 29.7448 9.78385 29.3854 9.13281C29.026 8.48177 28.8463 7.76823 28.8463 6.99219C28.8463 6.21615 29.026 5.5026 29.3854 4.85156C29.7448 4.20052 30.2421 3.6849 30.8776 3.30469C31.513 2.92448 32.2239 2.73438 33.0104 2.73438C33.7968 2.73438 34.4974 2.92188 35.1119 3.29688C35.7265 3.67188 36.2031 4.17448 36.5416 4.80469C36.8854 5.42969 37.0573 6.11198 37.0573 6.85156ZM35.1276 6.03125C35.1015 5.73438 34.9895 5.46094 34.7916 5.21094C34.5937 4.95573 34.3359 4.75521 34.0182 4.60938C33.7057 4.45833 33.3671 4.38281 33.0026 4.38281C32.4974 4.38281 32.0442 4.52344 31.6432 4.80469C31.2474 5.08073 30.9739 5.48958 30.8229 6.03125H35.1276Z" fill="#012345"/>
<path d="M38.6041 0H40.4948V11.0078H38.6041V0Z" fill="#012345"/>
<path d="M45.9244 11.25C45.2161 11.25 44.5729 11.0599 43.9948 10.6797C43.4166 10.2995 42.9635 9.78385 42.6354 9.13281C42.3073 8.48177 42.1432 7.76823 42.1432 6.99219C42.1432 6.22135 42.3073 5.51042 42.6354 4.85938C42.9687 4.20833 43.4218 3.69271 43.9948 3.3125C44.5729 2.92708 45.2135 2.73438 45.9166 2.73438C46.5729 2.73438 47.1536 2.8776 47.6588 3.16406C48.1692 3.44531 48.5546 3.83594 48.8151 4.33594V2.97656H50.6119V11.0078H48.8151V9.65625C48.5546 10.1562 48.1692 10.5469 47.6588 10.8281C47.1536 11.1094 46.5755 11.25 45.9244 11.25ZM46.3776 9.5C46.8099 9.5 47.2057 9.39062 47.5651 9.17188C47.9296 8.94792 48.2161 8.64583 48.4244 8.26562C48.6328 7.88021 48.7369 7.45573 48.7369 6.99219C48.7369 6.53385 48.6302 6.11458 48.4166 5.73438C48.2083 5.34896 47.9244 5.04427 47.5651 4.82031C47.2057 4.59635 46.8099 4.48438 46.3776 4.48438C45.9453 4.48438 45.5494 4.59115 45.1901 4.80469C44.8307 5.01302 44.5442 5.30729 44.3307 5.6875C44.1224 6.06771 44.0182 6.5026 44.0182 6.99219C44.0182 7.4974 44.125 7.9401 44.3385 8.32031C44.552 8.70052 44.8385 8.99219 45.1979 9.19531C45.5573 9.39844 45.9505 9.5 46.3776 9.5Z" fill="#012345"/>
<path d="M54.6354 2.97656V4.22656C54.8698 3.77865 55.2317 3.41927 55.7213 3.14844C56.2161 2.8724 56.7682 2.73438 57.3776 2.73438C58.4453 2.73438 59.25 3.07292 59.7916 3.75C60.3333 4.42708 60.6041 5.40365 60.6041 6.67969V11.0078H58.7135V6.71875C58.7135 5.94792 58.552 5.38281 58.2291 5.02344C57.9062 4.65885 57.4479 4.47656 56.8541 4.47656C56.4739 4.47656 56.1224 4.57292 55.7994 4.76562C55.4765 4.95312 55.2161 5.23177 55.0182 5.60156C54.8255 5.96615 54.7291 6.40104 54.7291 6.90625V11.0078H52.8385V2.97656H54.6354Z" fill="#012345"/>
<path d="M70.401 6.85156C70.401 7.02865 70.388 7.24219 70.3619 7.49219H64.0885C64.151 7.91927 64.2864 8.28906 64.4948 8.60156C64.7083 8.91406 64.9713 9.15365 65.2838 9.32031C65.6015 9.48177 65.9453 9.5625 66.3151 9.5625C66.7838 9.5625 67.1666 9.47135 67.4635 9.28906C67.7656 9.10156 67.9869 8.83333 68.1276 8.48438H70.1901C70.0494 8.97917 69.802 9.4375 69.4479 9.85938C69.0937 10.2812 68.6484 10.6198 68.1119 10.875C67.5807 11.125 66.9948 11.25 66.3541 11.25C65.5677 11.25 64.8567 11.0599 64.2213 10.6797C63.5859 10.2995 63.0885 9.78385 62.7291 9.13281C62.3698 8.48177 62.1901 7.76823 62.1901 6.99219C62.1901 6.21615 62.3698 5.5026 62.7291 4.85156C63.0885 4.20052 63.5859 3.6849 64.2213 3.30469C64.8567 2.92448 65.5677 2.73438 66.3541 2.73438C67.1406 2.73438 67.8411 2.92188 68.4557 3.29688C69.0703 3.67188 69.5468 4.17448 69.8854 4.80469C70.2291 5.42969 70.401 6.11198 70.401 6.85156ZM68.4713 6.03125C68.4453 5.73438 68.3333 5.46094 68.1354 5.21094C67.9375 4.95573 67.6796 4.75521 67.3619 4.60938C67.0494 4.45833 66.7109 4.38281 66.3463 4.38281C65.8411 4.38281 65.388 4.52344 64.9869 4.80469C64.5911 5.08073 64.3177 5.48958 64.1666 6.03125H68.4713Z" fill="#012345"/>
</svg>
